<svg width="807" height="886" viewBox="0 0 807 886" fill="none" xmlns="http://www.w3.org/2000/svg">
<path fill-rule="evenodd" clip-rule="evenodd" d="M490.537 5.8141C425.661 3.00114 356.295 18.6975 306.093 68.3764C255.831 118.116 232.735 168.629 221.502 210.012C215.885 230.706 213.233 249.121 211.634 264.023C211.048 269.487 210.604 274.476 210.208 278.935C210.063 280.559 209.925 282.112 209.788 283.593C209.28 289.102 208.794 293.617 208.092 296.959C208.093 407.941 213.488 465.018 227.429 513.796C231.1 526.638 236.936 539.805 243.44 553.258C245.732 557.998 248.108 562.777 250.5 567.588C254.46 575.552 258.465 583.606 262.206 591.726C244.865 391.276 288.253 256.829 369.837 184.774C451.671 112.497 571.776 103.13 707.109 152.653C703.903 129.455 698.454 112.011 689.205 96.8537C679.845 81.5149 666.57 68.4808 647.706 54.1883C615.718 29.9522 555.424 8.62748 490.537 5.8141ZM707.261 153.774C571.92 104.117 452.055 113.492 370.499 185.523C288.882 257.608 245.469 392.58 263.449 594.448C281.635 634.541 330.204 666.74 390.213 687.453C450.234 708.17 521.573 717.351 585.045 711.487C648.309 705.641 683.219 658.228 700.701 608.39C709.44 583.477 713.81 557.989 715.184 536.857C715.871 526.292 715.808 516.822 715.17 509.064C714.53 501.293 713.317 495.278 711.724 491.599L711.535 491.162L711.962 490.952C729.883 482.139 746.91 481.215 761.452 480.425C762.653 480.36 763.837 480.296 765.004 480.228C780.343 479.337 792.448 477.846 799.844 466.227C801.643 463.402 801.916 460.385 800.955 457.011C799.988 453.612 797.771 449.863 794.597 445.634C791.427 441.411 787.331 436.747 782.641 431.515C781.763 430.536 780.863 429.536 779.946 428.516C775.969 424.095 771.647 419.291 767.169 414.046C745.119 388.217 719.256 351.663 711.688 296.975L711.683 296.941V296.907C711.683 231.233 711.682 186.758 707.261 153.774ZM490.581 4.81504C555.617 7.63494 616.123 29.004 648.31 53.3913C667.223 67.7213 680.607 80.844 690.058 96.3327C699.512 111.824 705.01 129.646 708.212 153.341C712.683 186.431 712.683 231.044 712.683 296.858V296.872C720.22 351.272 745.943 387.643 767.93 413.397C772.397 418.629 776.707 423.421 780.683 427.84C781.602 428.862 782.504 429.865 783.386 430.848C788.074 436.077 792.197 440.771 795.397 445.034C798.593 449.292 800.899 453.159 801.917 456.737C802.942 460.339 802.664 463.66 800.688 466.764C792.985 478.864 780.342 480.338 765.062 481.226C763.898 481.294 762.717 481.358 761.522 481.423C747.085 482.208 730.402 483.116 712.827 491.642C714.391 495.496 715.548 501.471 716.166 508.982C716.809 516.798 716.871 526.317 716.182 536.922C714.803 558.132 710.417 583.711 701.644 608.721C684.103 658.728 648.965 706.585 585.137 712.482C521.518 718.361 450.037 709.16 389.887 688.398C329.764 667.646 280.836 635.298 262.503 594.783C258.429 585.781 254.001 576.875 249.617 568.059C247.223 563.244 244.842 558.455 242.54 553.693C236.159 540.496 230.395 527.523 226.689 514.838C226.68 514.846 226.671 514.854 226.662 514.862C226.254 515.23 225.652 515.775 224.873 516.486C223.316 517.909 221.053 519.997 218.23 522.654C212.586 527.969 204.705 535.562 195.763 544.673C177.877 562.899 155.757 587.188 138.793 611.466C121.82 635.758 94.4617 681.694 71.3377 721.574C59.7779 741.511 49.2795 759.929 41.6711 773.362C37.8669 780.079 34.7853 785.549 32.6547 789.341C31.5894 791.236 30.7619 792.712 30.2008 793.714C29.9202 794.215 29.7062 794.598 29.5623 794.855L29.3483 795.238L29.3457 795.242C29.3452 795.243 29.3449 795.244 28.9083 795C28.4235 795.122 28.4234 795.122 28.4232 795.121L28.4224 795.118L28.3546 794.847C28.3093 794.666 28.2421 794.396 28.1544 794.041C27.9791 793.332 27.7221 792.286 27.3951 790.934C26.7409 788.232 25.8065 784.311 24.6854 779.435C22.4431 769.685 19.4533 756.115 16.4635 740.839C10.486 710.3 4.5 672.901 4.5 645.572C4.5 618.208 13.6462 579.896 28.1259 541.478C42.6082 503.053 62.4482 464.462 83.8783 436.543C105.341 408.581 136.253 389.861 161.768 378.134C174.53 372.268 185.953 368.148 194.186 365.493C198.303 364.166 201.623 363.205 203.915 362.575C205.061 362.261 205.95 362.029 206.553 361.875C206.855 361.799 207.085 361.742 207.24 361.704C207.318 361.685 207.377 361.671 207.416 361.661L207.473 361.648L207.476 361.647C207.476 361.647 207.477 361.647 207.592 362.133C207.706 362.62 207.706 362.62 207.706 362.62L207.703 362.621L207.65 362.633C207.612 362.643 207.554 362.656 207.478 362.675C207.377 362.7 207.243 362.733 207.077 362.775C206.993 362.796 206.9 362.819 206.8 362.845C206.202 362.996 205.32 363.227 204.18 363.54C201.901 364.166 198.595 365.122 194.493 366.445C186.289 369.09 174.905 373.197 162.186 379.042C136.739 390.738 105.993 409.374 84.6716 437.152C63.3185 464.971 43.521 503.466 29.0616 541.831C14.5997 580.202 5.5 618.383 5.5 645.572C5.5 672.796 11.4681 710.111 17.4449 740.647C20.4321 755.91 23.4194 769.468 25.6599 779.211C26.7802 784.083 27.7136 788 28.367 790.699C28.6716 791.958 28.9153 792.951 29.0887 793.653C29.1622 793.522 29.2421 793.379 29.3283 793.225C29.8897 792.223 30.7174 790.747 31.7829 788.851C33.914 785.059 36.9962 779.587 40.801 772.869C48.4105 759.434 58.9106 741.013 70.4726 721.073C93.5925 681.199 120.972 635.225 137.973 610.893C154.984 586.549 177.147 562.214 195.05 543.972C204.002 534.85 211.892 527.248 217.545 521.926C220.371 519.265 222.638 517.174 224.199 515.748C224.979 515.035 225.583 514.488 225.992 514.12C226.152 513.975 226.282 513.858 226.382 513.769C212.462 464.909 207.092 407.71 207.092 296.907V296.854L207.102 296.803C207.796 293.523 208.281 289.047 208.792 283.501C208.929 282.026 209.067 280.475 209.211 278.853C209.608 274.392 210.053 269.39 210.64 263.916C212.242 248.983 214.901 230.512 220.537 209.75C231.81 168.221 254.986 117.545 305.39 67.6656C355.855 17.7256 425.535 1.99473 490.581 4.81504ZM28.9083 795L28.4235 795.122L28.7311 796.343L29.3449 795.244L28.9083 795Z" fill="#58D68D"/>
<path d="M28.9083 795C29.3449 795.244 29.3452 795.243 29.3457 795.242L29.3483 795.238L29.5623 794.855C29.7062 794.598 29.9202 794.215 30.2008 793.714C30.7619 792.712 31.5894 791.236 32.6547 789.341C34.7853 785.549 37.8669 780.079 41.6711 773.362C49.2795 759.929 59.7779 741.511 71.3377 721.574C94.4617 681.694 121.82 635.758 138.793 611.466C155.757 587.188 177.877 562.899 195.763 544.673C204.705 535.562 212.586 527.969 218.23 522.654C221.053 519.997 223.316 517.909 224.873 516.486C225.652 515.775 226.254 515.23 226.662 514.862C226.671 514.854 226.68 514.846 226.689 514.838C230.395 527.523 236.159 540.496 242.54 553.693C244.842 558.455 247.223 563.244 249.617 568.059C254.001 576.875 258.429 585.781 262.503 594.783C280.836 635.298 329.764 667.646 389.887 688.398C450.037 709.16 521.518 718.361 585.137 712.482C648.965 706.585 684.103 658.728 701.644 608.721C710.417 583.711 714.803 558.132 716.182 536.922C716.871 526.317 716.809 516.798 716.166 508.982C715.548 501.471 714.391 495.496 712.827 491.642C730.402 483.116 747.085 482.208 761.522 481.423C762.717 481.358 763.898 481.294 765.062 481.226C780.342 480.338 792.985 478.864 800.688 466.764C802.664 463.66 802.942 460.339 801.917 456.737C800.899 453.159 798.593 449.292 795.397 445.034C792.197 440.771 788.074 436.077 783.386 430.848C782.504 429.865 781.602 428.862 780.683 427.84C776.707 423.421 772.397 418.629 767.93 413.397C745.943 387.643 720.22 351.272 712.683 296.872V296.858C712.683 231.044 712.683 186.431 708.212 153.341C705.01 129.646 699.512 111.824 690.058 96.3327C680.607 80.844 667.223 67.7213 648.31 53.3913C616.123 29.004 555.617 7.63494 490.581 4.81504C425.535 1.99473 355.855 17.7256 305.39 67.6656C254.986 117.545 231.81 168.221 220.537 209.75C214.901 230.512 212.242 248.983 210.64 263.916C210.053 269.39 209.608 274.392 209.211 278.853C209.067 280.475 208.929 282.026 208.792 283.501C208.281 289.047 207.796 293.523 207.102 296.803L207.092 296.854V296.907C207.092 407.71 212.462 464.909 226.382 513.769C226.282 513.858 226.152 513.975 225.992 514.12C225.583 514.488 224.979 515.035 224.199 515.748C222.638 517.174 220.371 519.265 217.545 521.926C211.892 527.248 204.002 534.85 195.05 543.972C177.147 562.214 154.984 586.549 137.973 610.893C120.972 635.225 93.5925 681.199 70.4726 721.073C58.9106 741.013 48.4105 759.434 40.801 772.869C36.9962 779.587 33.914 785.059 31.7829 788.851C30.7174 790.747 29.8897 792.223 29.3283 793.225C29.2421 793.379 29.1622 793.522 29.0887 793.653C28.9153 792.951 28.6716 791.958 28.367 790.699C27.7136 788 26.7802 784.083 25.6599 779.211C23.4194 769.468 20.4321 755.91 17.4449 740.647C11.4681 710.111 5.5 672.796 5.5 645.572C5.5 618.383 14.5997 580.202 29.0616 541.831C43.521 503.466 63.3185 464.971 84.6716 437.152C105.993 409.374 136.739 390.738 162.186 379.042C174.905 373.197 186.289 369.09 194.493 366.445C198.595 365.122 201.901 364.166 204.18 363.54C205.32 363.227 206.202 362.996 206.8 362.845C206.9 362.819 206.993 362.796 207.077 362.775C207.243 362.733 207.377 362.7 207.478 362.675C207.554 362.656 207.612 362.643 207.65 362.633L207.703 362.621L207.706 362.62C207.706 362.62 207.706 362.62 207.592 362.133C207.477 361.647 207.476 361.647 207.476 361.647L207.473 361.648L207.416 361.661C207.377 361.671 207.318 361.685 207.24 361.704C207.085 361.742 206.855 361.799 206.553 361.875C205.95 362.029 205.061 362.261 203.915 362.575C201.623 363.205 198.303 364.166 194.186 365.493C185.953 368.148 174.53 372.268 161.768 378.134C136.253 389.861 105.341 408.581 83.8783 436.543C62.4482 464.462 42.6082 503.053 28.1259 541.478C13.6462 579.896 4.5 618.208 4.5 645.572C4.5 672.901 10.486 710.3 16.4635 740.839C19.4533 756.115 22.4431 769.685 24.6854 779.435C25.8065 784.311 26.7409 788.232 27.3951 790.934C27.7221 792.286 27.9791 793.332 28.1544 794.041C28.2421 794.396 28.3093 794.666 28.3546 794.847L28.4224 795.118L28.4232 795.121C28.4234 795.122 28.4235 795.122 28.9083 795ZM28.9083 795L28.4235 795.122L28.7311 796.343L29.3449 795.244L28.9083 795ZM306.093 68.3764C356.295 18.6975 425.661 3.00114 490.537 5.8141C555.424 8.62748 615.718 29.9522 647.706 54.1883C666.57 68.4808 679.845 81.5149 689.205 96.8537C698.454 112.011 703.903 129.455 707.109 152.653C571.776 103.13 451.671 112.497 369.837 184.774C288.253 256.829 244.865 391.276 262.206 591.726C258.465 583.606 254.46 575.552 250.5 567.588C248.108 562.777 245.732 557.998 243.44 553.258C236.936 539.805 231.1 526.638 227.429 513.796C213.488 465.018 208.093 407.941 208.092 296.959C208.794 293.617 209.28 289.102 209.788 283.593C209.925 282.112 210.063 280.559 210.208 278.935C210.604 274.476 211.048 269.487 211.634 264.023C213.233 249.121 215.885 230.706 221.502 210.012C232.735 168.629 255.831 118.116 306.093 68.3764ZM370.499 185.523C452.055 113.492 571.92 104.117 707.261 153.774C711.682 186.758 711.683 231.233 711.683 296.907V296.941L711.688 296.975C719.256 351.663 745.119 388.217 767.169 414.046C771.647 419.291 775.969 424.095 779.946 428.516C780.863 429.536 781.763 430.536 782.641 431.515C787.331 436.747 791.427 441.411 794.597 445.634C797.771 449.863 799.988 453.612 800.955 457.011C801.916 460.385 801.643 463.402 799.844 466.227C792.448 477.846 780.343 479.337 765.004 480.228C763.837 480.296 762.653 480.36 761.452 480.425C746.91 481.215 729.883 482.139 711.962 490.952L711.535 491.162L711.724 491.599C713.317 495.278 714.53 501.293 715.17 509.064C715.808 516.822 715.871 526.292 715.184 536.857C713.81 557.989 709.44 583.477 700.701 608.39C683.219 658.228 648.309 705.641 585.045 711.487C521.573 717.351 450.234 708.17 390.213 687.453C330.204 666.74 281.635 634.541 263.449 594.448C245.469 392.58 288.882 257.608 370.499 185.523Z" stroke="#58D68D" stroke-width="8"/>
<path d="M168.392 885.536C162.333 885.536 156.829 884.384 151.88 882.08C146.931 879.776 142.749 876.704 139.336 872.864C135.923 868.939 133.491 864.629 132.04 859.936L141.256 856.48C143.475 862.965 146.931 867.915 151.624 871.328C156.317 874.656 161.907 876.32 168.392 876.32C172.488 876.32 176.072 875.68 179.144 874.4C182.301 873.035 184.733 871.157 186.44 868.768C188.147 866.379 189 863.605 189 860.448C189 855.755 187.72 852.128 185.16 849.568C182.6 847.008 178.931 845.045 174.152 843.68L157 838.56C150.259 836.597 145.053 833.312 141.384 828.704C137.8 824.096 136.008 818.848 136.008 812.96C136.008 807.925 137.245 803.488 139.72 799.648C142.195 795.723 145.565 792.651 149.832 790.432C154.184 788.213 159.091 787.104 164.552 787.104C170.269 787.104 175.389 788.171 179.912 790.304C184.52 792.352 188.403 795.083 191.56 798.496C194.717 801.909 196.979 805.707 198.344 809.888L189.384 813.472C187.336 807.84 184.136 803.573 179.784 800.672C175.517 797.771 170.483 796.32 164.68 796.32C161.011 796.32 157.768 796.96 154.952 798.24C152.221 799.52 150.088 801.355 148.552 803.744C147.016 806.133 146.248 808.949 146.248 812.192C146.248 816.117 147.485 819.659 149.96 822.816C152.435 825.888 156.232 828.192 161.352 829.728L176.456 834.208C183.965 836.427 189.64 839.627 193.48 843.808C197.32 847.989 199.24 853.237 199.24 859.552C199.24 864.672 197.917 869.195 195.272 873.12C192.712 876.96 189.085 879.989 184.392 882.208C179.784 884.427 174.451 885.536 168.392 885.536ZM219.014 884V788.64H227.974L263.814 840.608H258.822L294.534 788.64H303.494V884H293.254V802.464L296.582 803.744L261.51 854.56H260.998L226.054 803.744L229.254 802.464V884H219.014ZM370.942 885.536C364.286 885.536 358.057 884.341 352.254 881.952C346.537 879.477 341.502 876.064 337.15 871.712C332.798 867.275 329.385 862.069 326.91 856.096C324.435 850.037 323.198 843.424 323.198 836.256C323.198 829.088 324.435 822.517 326.91 816.544C329.385 810.485 332.798 805.28 337.15 800.928C341.502 796.491 346.537 793.077 352.254 790.688C358.057 788.299 364.286 787.104 370.942 787.104C377.598 787.104 383.785 788.341 389.502 790.816C395.305 793.205 400.382 796.619 404.734 801.056C409.086 805.408 412.499 810.571 414.974 816.544C417.449 822.517 418.686 829.088 418.686 836.256C418.686 843.424 417.449 850.037 414.974 856.096C412.499 862.069 409.086 867.275 404.734 871.712C400.382 876.064 395.305 879.477 389.502 881.952C383.785 884.341 377.598 885.536 370.942 885.536ZM370.942 875.936C376.489 875.936 381.523 874.912 386.046 872.864C390.654 870.816 394.622 867.957 397.95 864.288C401.278 860.619 403.838 856.395 405.63 851.616C407.507 846.837 408.446 841.717 408.446 836.256C408.446 830.88 407.507 825.803 405.63 821.024C403.838 816.245 401.278 812.021 397.95 808.352C394.622 804.683 390.654 801.824 386.046 799.776C381.523 797.728 376.489 796.704 370.942 796.704C365.395 796.704 360.318 797.728 355.71 799.776C351.187 801.824 347.262 804.683 343.934 808.352C340.606 812.021 338.003 816.245 336.126 821.024C334.334 825.803 333.438 830.88 333.438 836.256C333.438 841.717 334.334 846.837 336.126 851.616C338.003 856.395 340.606 860.619 343.934 864.288C347.262 867.957 351.23 870.816 355.838 872.864C360.446 874.912 365.481 875.936 370.942 875.936ZM438.389 884V788.64H448.629V844.32L446.325 843.168L494.325 788.64H507.125L468.597 832.416L469.109 825.12L509.429 884H497.141L464.629 837.024L448.629 855.2V884H438.389ZM550.359 885.536C543.874 885.536 537.986 884 532.695 880.928C527.404 877.771 523.18 873.504 520.023 868.128C516.951 862.667 515.415 856.48 515.415 849.568C515.415 842.741 516.951 836.64 520.023 831.264C523.095 825.888 527.234 821.664 532.439 818.592C537.73 815.435 543.703 813.856 550.359 813.856C557.015 813.856 562.946 815.392 568.151 818.464C573.442 821.536 577.58 825.76 580.567 831.136C583.639 836.512 585.175 842.656 585.175 849.568C585.175 856.565 583.596 862.795 580.439 868.256C577.282 873.632 573.058 877.856 567.767 880.928C562.562 884 556.759 885.536 550.359 885.536ZM550.359 875.936C554.967 875.936 559.106 874.784 562.775 872.48C566.53 870.176 569.474 867.019 571.607 863.008C573.826 858.997 574.935 854.517 574.935 849.568C574.935 844.619 573.826 840.181 571.607 836.256C569.474 832.331 566.53 829.216 562.775 826.912C559.106 824.608 554.967 823.456 550.359 823.456C545.751 823.456 541.57 824.608 537.815 826.912C534.146 829.216 531.202 832.331 528.983 836.256C526.764 840.181 525.655 844.619 525.655 849.568C525.655 854.517 526.764 858.997 528.983 863.008C531.202 867.019 534.146 870.176 537.815 872.48C541.57 874.784 545.751 875.936 550.359 875.936ZM633.338 885.536C626.938 885.536 621.135 884 615.93 880.928C610.81 877.771 606.757 873.461 603.77 868C600.783 862.539 599.29 856.352 599.29 849.44C599.29 842.528 600.741 836.427 603.642 831.136C606.543 825.76 610.469 821.536 615.418 818.464C620.453 815.392 626.085 813.856 632.314 813.856C637.263 813.856 641.658 814.795 645.498 816.672C649.423 818.464 652.751 820.939 655.482 824.096C658.213 827.168 660.303 830.667 661.754 834.592C663.205 838.432 663.93 842.4 663.93 846.496C663.93 847.349 663.887 848.331 663.802 849.44C663.717 850.464 663.589 851.531 663.418 852.64H605.434V843.68H657.914L653.306 847.52C654.074 842.827 653.519 838.645 651.642 834.976C649.85 831.221 647.247 828.277 643.834 826.144C640.421 823.925 636.581 822.816 632.314 822.816C628.047 822.816 624.079 823.925 620.41 826.144C616.826 828.363 614.01 831.477 611.962 835.488C609.914 839.413 609.103 844.107 609.53 849.568C609.103 855.029 609.957 859.808 612.09 863.904C614.309 867.915 617.295 871.029 621.05 873.248C624.89 875.467 628.986 876.576 633.338 876.576C638.373 876.576 642.597 875.381 646.01 872.992C649.423 870.603 652.197 867.616 654.33 864.032L662.522 868.384C661.157 871.456 659.066 874.315 656.25 876.96C653.434 879.52 650.063 881.611 646.138 883.232C642.298 884.768 638.031 885.536 633.338 885.536ZM704.664 885.536C698.093 885.536 692.333 883.872 687.384 880.544C682.435 877.216 678.851 872.693 676.632 866.976L684.696 863.136C686.659 867.317 689.389 870.645 692.888 873.12C696.472 875.595 700.397 876.832 704.664 876.832C708.76 876.832 712.216 875.851 715.032 873.888C717.848 871.84 719.256 869.195 719.256 865.952C719.256 863.563 718.573 861.685 717.208 860.32C715.843 858.869 714.264 857.76 712.472 856.992C710.68 856.224 709.101 855.669 707.736 855.328L697.88 852.512C691.565 850.72 687 848.203 684.184 844.96C681.368 841.717 679.96 837.963 679.96 833.696C679.96 829.685 680.984 826.187 683.032 823.2C685.08 820.213 687.853 817.909 691.352 816.288C694.851 814.667 698.733 813.856 703 813.856C708.803 813.856 714.051 815.392 718.744 818.464C723.523 821.451 726.893 825.632 728.856 831.008L720.664 834.848C718.957 831.008 716.483 828.021 713.24 825.888C710.083 823.669 706.541 822.56 702.616 822.56C698.776 822.56 695.704 823.541 693.4 825.504C691.096 827.467 689.944 829.941 689.944 832.928C689.944 835.232 690.541 837.067 691.736 838.432C692.931 839.797 694.296 840.821 695.832 841.504C697.453 842.187 698.861 842.699 700.056 843.04L711.448 846.368C716.995 847.989 721.304 850.507 724.376 853.92C727.533 857.333 729.112 861.344 729.112 865.952C729.112 869.707 728.045 873.077 725.912 876.064C723.864 879.051 721.005 881.397 717.336 883.104C713.667 884.725 709.443 885.536 704.664 885.536Z" fill="#58D68D"/>
</svg>
