<svg width="818" height="830" viewBox="0 0 818 830" fill="none" xmlns="http://www.w3.org/2000/svg">
<path fill-rule="evenodd" clip-rule="evenodd" d="M495.538 11.8141C430.661 9.00114 361.295 24.6975 311.093 74.3764C260.831 124.116 237.735 174.629 226.502 216.012C220.885 236.706 218.233 255.121 216.634 270.023C216.048 275.487 215.604 280.476 215.208 284.935C215.063 286.559 214.925 288.112 214.788 289.593C214.28 295.102 213.794 299.617 213.092 302.959C213.093 413.941 218.488 471.018 232.429 519.796C236.1 532.638 241.936 545.805 248.44 559.258C250.732 563.998 253.108 568.777 255.5 573.588C259.46 581.552 263.465 589.606 267.206 597.726C249.866 397.276 293.253 262.829 374.837 190.774C456.671 118.497 576.776 109.13 712.109 158.653C708.903 135.455 703.454 118.011 694.205 102.854C684.845 87.5149 671.57 74.4808 652.706 60.1883C620.718 35.9522 560.424 14.6275 495.538 11.8141ZM712.261 159.774C576.92 110.117 457.056 119.492 375.499 191.523C293.882 263.608 250.47 398.58 268.449 600.448C286.635 640.541 335.204 672.74 395.213 693.453C455.234 714.17 526.573 723.351 590.045 717.487C653.309 711.641 688.219 664.228 705.701 614.39C714.44 589.477 718.81 563.989 720.184 542.857C720.871 532.292 720.808 522.822 720.17 515.064C719.53 507.293 718.317 501.278 716.724 497.599L716.535 497.162L716.962 496.952C734.883 488.139 751.91 487.215 766.452 486.425C767.653 486.36 768.837 486.296 770.004 486.228C785.343 485.337 797.448 483.846 804.844 472.227C806.643 469.402 806.916 466.385 805.955 463.011C804.988 459.612 802.771 455.863 799.597 451.634C796.427 447.411 792.331 442.747 787.641 437.515C786.763 436.536 785.863 435.536 784.946 434.516C780.969 430.095 776.647 425.291 772.169 420.046C750.119 394.217 724.256 357.663 716.688 302.975L716.683 302.941V302.907C716.683 237.233 716.682 192.758 712.261 159.774ZM495.581 10.815C560.618 13.6349 621.123 35.004 653.31 59.3913C672.223 73.7213 685.607 86.844 695.058 102.333C704.512 117.824 710.01 135.646 713.212 159.341C717.683 192.431 717.683 237.044 717.683 302.858V302.872C725.22 357.272 750.943 393.643 772.93 419.397C777.397 424.629 781.707 429.421 785.683 433.84C786.602 434.862 787.504 435.865 788.386 436.848C793.074 442.077 797.197 446.771 800.397 451.034C803.593 455.292 805.899 459.159 806.917 462.737C807.942 466.339 807.664 469.66 805.688 472.764C797.985 484.864 785.342 486.338 770.062 487.226C768.898 487.294 767.717 487.358 766.522 487.423C752.085 488.208 735.402 489.116 717.827 497.642C719.391 501.496 720.548 507.471 721.166 514.982C721.809 522.798 721.871 532.317 721.182 542.922C719.803 564.132 715.417 589.711 706.644 614.721C689.103 664.728 653.965 712.585 590.137 718.482C526.518 724.361 455.037 715.16 394.887 694.398C334.764 673.646 285.836 641.298 267.503 600.783C263.43 591.781 259.001 582.875 254.617 574.059C252.223 569.244 249.842 564.455 247.54 559.693C241.159 546.496 235.395 533.523 231.689 520.838C231.68 520.846 231.671 520.854 231.662 520.862C231.254 521.23 230.652 521.775 229.873 522.486C228.316 523.909 226.053 525.997 223.23 528.654C217.586 533.969 209.705 541.562 200.763 550.673C182.877 568.899 160.757 593.188 143.793 617.466C126.82 641.758 99.4617 687.694 76.3377 727.574C64.7779 747.511 54.2796 765.929 46.6712 779.362C42.867 786.079 39.7853 791.549 37.6547 795.341C36.5895 797.236 35.762 798.712 35.2008 799.714C34.9202 800.215 34.7062 800.598 34.5624 800.855L34.3483 801.238L34.3458 801.242C34.3458 801.242 34.3449 801.244 33.9084 801C33.4235 801.122 33.4232 801.121 33.4232 801.121L33.4224 801.118L33.3547 800.847C33.3093 800.666 33.2421 800.396 33.1545 800.041C32.9792 799.332 32.7222 798.286 32.3951 796.934C31.7409 794.232 30.8066 790.311 29.6854 785.435C27.4431 775.685 24.4533 762.115 21.4635 746.839C15.4861 716.3 11.5001 702.696 10.5 651.572C9.50001 600.448 19.4287 567.072 33.9084 528.654C48.3907 490.229 61.5698 478.954 83 451.034C107.5 420.046 141.253 395.861 166.768 384.134C179.53 378.268 190.953 374.148 199.186 371.493C203.303 370.166 206.623 369.205 208.915 368.575C210.061 368.261 210.95 368.029 211.553 367.875C211.855 367.799 212.085 367.742 212.24 367.704C212.318 367.685 212.377 367.671 212.416 367.661L212.473 367.648L212.476 367.647C212.476 367.647 212.477 367.647 212.592 368.133C212.706 368.62 212.706 368.62 212.706 368.62L212.703 368.621L212.65 368.633C212.612 368.643 212.554 368.656 212.478 368.675C212.377 368.7 212.243 368.733 212.077 368.775C211.993 368.796 211.9 368.819 211.8 368.845C211.202 368.996 210.32 369.227 209.18 369.54C206.901 370.166 203.595 371.122 199.493 372.445C191.289 375.09 179.905 379.197 167.186 385.042C141.739 396.738 108.5 420.046 83 451.034C61.6469 478.853 45.801 497.642 33.9084 528.654C19.4464 567.025 9.50001 600.448 10.5 651.572C11.5001 702.696 16.4682 716.111 22.4449 746.647C25.4321 761.91 28.4195 775.468 30.66 785.211C31.7802 790.083 32.7137 794 33.367 796.699C33.6716 797.958 33.9154 798.951 34.0887 799.653C34.1622 799.522 34.2421 799.379 34.3283 799.225C34.8897 798.223 35.7174 796.747 36.783 794.851C38.914 791.059 41.9962 785.587 45.801 778.869C53.4106 765.434 63.9106 747.013 75.4727 727.073C98.5925 687.199 125.972 641.225 142.973 616.893C159.984 592.549 182.147 568.214 200.05 549.972C209.002 540.85 216.892 533.248 222.545 527.926C225.371 525.265 227.638 523.174 229.199 521.748C229.979 521.035 230.583 520.488 230.992 520.12C231.152 519.975 231.282 519.858 231.382 519.769C217.462 470.909 212.092 413.71 212.092 302.907V302.854L212.102 302.803C212.796 299.523 213.281 295.047 213.792 289.501C213.929 288.026 214.067 286.475 214.211 284.853C214.608 280.392 215.053 275.39 215.64 269.916C217.242 254.983 219.901 236.512 225.537 215.75C236.81 174.221 259.986 123.545 310.39 73.6656C360.855 23.7256 430.535 7.99473 495.581 10.815ZM33.9084 801L33.4235 801.122L33.7311 802.343L34.3449 801.244L33.9084 801Z" fill="#27AE60"/>
<path d="M33.9084 801C34.3449 801.244 34.3458 801.242 34.3458 801.242L34.3483 801.238L34.5624 800.855C34.7062 800.598 34.9202 800.215 35.2008 799.714C35.762 798.712 36.5895 797.236 37.6547 795.341C39.7853 791.549 42.867 786.079 46.6712 779.362C54.2796 765.929 64.7779 747.511 76.3377 727.574C99.4617 687.694 126.82 641.758 143.793 617.466C160.757 593.188 182.877 568.899 200.763 550.673C209.705 541.562 217.586 533.969 223.23 528.654C226.053 525.997 228.316 523.909 229.873 522.486C230.652 521.775 231.254 521.23 231.662 520.862C231.671 520.854 231.68 520.846 231.689 520.838C235.395 533.523 241.159 546.496 247.54 559.693C249.842 564.455 252.223 569.244 254.617 574.059C259.001 582.875 263.43 591.781 267.503 600.783C285.836 641.298 334.764 673.646 394.887 694.398C455.037 715.16 526.518 724.361 590.137 718.482C653.965 712.585 689.103 664.728 706.644 614.721C715.417 589.711 719.803 564.132 721.182 542.922C721.871 532.317 721.809 522.798 721.166 514.982C720.548 507.471 719.391 501.496 717.827 497.642C735.402 489.116 752.085 488.208 766.522 487.423C767.717 487.358 768.898 487.294 770.062 487.226C785.342 486.338 797.985 484.864 805.688 472.764C807.664 469.66 807.942 466.339 806.917 462.737C805.899 459.159 803.593 455.292 800.397 451.034C797.197 446.771 793.074 442.077 788.386 436.848C787.504 435.865 786.602 434.862 785.683 433.84C781.707 429.421 777.397 424.629 772.93 419.397C750.943 393.643 725.22 357.272 717.683 302.872V302.858C717.683 237.044 717.683 192.431 713.212 159.341C710.01 135.646 704.512 117.824 695.058 102.333C685.607 86.844 672.223 73.7213 653.31 59.3913C621.123 35.004 560.618 13.6349 495.581 10.815C430.535 7.99473 360.855 23.7256 310.39 73.6656C259.986 123.545 236.81 174.221 225.537 215.75C219.901 236.512 217.242 254.983 215.64 269.916C215.053 275.39 214.608 280.392 214.211 284.853C214.067 286.475 213.929 288.026 213.792 289.501C213.281 295.047 212.796 299.523 212.102 302.803L212.092 302.854V302.907C212.092 413.71 217.462 470.909 231.382 519.769C231.282 519.858 231.152 519.975 230.992 520.12C230.583 520.488 229.979 521.035 229.199 521.748C227.638 523.174 225.371 525.265 222.545 527.926C216.892 533.248 209.002 540.85 200.05 549.972C182.147 568.214 159.984 592.549 142.973 616.893C125.972 641.225 98.5925 687.199 75.4727 727.073C63.9106 747.013 53.4106 765.434 45.801 778.869C41.9962 785.587 38.914 791.059 36.783 794.851C35.7174 796.747 34.8897 798.223 34.3283 799.225C34.2421 799.379 34.1622 799.522 34.0887 799.653C33.9154 798.951 33.6716 797.958 33.367 796.699C32.7137 794 31.7802 790.083 30.66 785.211C28.4195 775.468 25.4321 761.91 22.4449 746.647C16.4682 716.111 11.5001 702.696 10.5 651.572M33.9084 801C33.4235 801.122 33.4232 801.121 33.4232 801.121L33.4224 801.118L33.3547 800.847C33.3093 800.666 33.2421 800.396 33.1545 800.041C32.9792 799.332 32.7222 798.286 32.3951 796.934C31.7409 794.232 30.8066 790.311 29.6854 785.435C27.4431 775.685 24.4533 762.115 21.4635 746.839C15.4861 716.3 11.5001 702.696 10.5 651.572M33.9084 801L33.4235 801.122L33.7311 802.343L34.3449 801.244L33.9084 801ZM10.5 651.572C9.50001 600.448 19.4287 567.072 33.9084 528.654M10.5 651.572C9.50001 600.448 19.4464 567.025 33.9084 528.654M33.9084 528.654C48.3907 490.229 61.5698 478.954 83 451.034M33.9084 528.654C45.801 497.642 61.6469 478.853 83 451.034M83 451.034C107.5 420.046 141.253 395.861 166.768 384.134C179.53 378.268 190.953 374.148 199.186 371.493C203.303 370.166 206.623 369.205 208.915 368.575C210.061 368.261 210.95 368.029 211.553 367.875C211.855 367.799 212.085 367.742 212.24 367.704C212.318 367.685 212.377 367.671 212.416 367.661L212.473 367.648L212.476 367.647C212.476 367.647 212.477 367.647 212.592 368.133C212.706 368.62 212.706 368.62 212.706 368.62L212.703 368.621L212.65 368.633C212.612 368.643 212.554 368.656 212.478 368.675C212.377 368.7 212.243 368.733 212.077 368.775C211.993 368.796 211.9 368.819 211.8 368.845C211.202 368.996 210.32 369.227 209.18 369.54C206.901 370.166 203.595 371.122 199.493 372.445C191.289 375.09 179.905 379.197 167.186 385.042C141.739 396.738 108.5 420.046 83 451.034ZM311.093 74.3764C361.295 24.6975 430.661 9.00114 495.538 11.8141C560.424 14.6275 620.718 35.9522 652.706 60.1883C671.57 74.4808 684.845 87.5149 694.205 102.854C703.454 118.011 708.903 135.455 712.109 158.653C576.776 109.13 456.671 118.497 374.837 190.774C293.253 262.829 249.866 397.276 267.206 597.726C263.465 589.606 259.46 581.552 255.5 573.588C253.108 568.777 250.732 563.998 248.44 559.258C241.936 545.805 236.1 532.638 232.429 519.796C218.488 471.018 213.093 413.941 213.092 302.959C213.794 299.617 214.28 295.102 214.788 289.593C214.925 288.112 215.063 286.559 215.208 284.935C215.604 280.476 216.048 275.487 216.634 270.023C218.233 255.121 220.885 236.706 226.502 216.012C237.735 174.629 260.831 124.116 311.093 74.3764ZM375.499 191.523C457.056 119.492 576.92 110.117 712.261 159.774C716.682 192.758 716.683 237.233 716.683 302.907V302.941L716.688 302.975C724.256 357.663 750.119 394.217 772.169 420.046C776.647 425.291 780.969 430.095 784.946 434.516C785.863 435.536 786.763 436.536 787.641 437.515C792.331 442.747 796.427 447.411 799.597 451.634C802.771 455.863 804.988 459.612 805.955 463.011C806.916 466.385 806.643 469.402 804.844 472.227C797.448 483.846 785.343 485.337 770.004 486.228C768.837 486.296 767.653 486.36 766.452 486.425C751.91 487.215 734.883 488.139 716.962 496.952L716.535 497.162L716.724 497.599C718.317 501.278 719.53 507.293 720.17 515.064C720.808 522.822 720.871 532.292 720.184 542.857C718.81 563.989 714.44 589.477 705.701 614.39C688.219 664.228 653.309 711.641 590.045 717.487C526.573 723.351 455.234 714.17 395.213 693.453C335.204 672.74 286.635 640.541 268.449 600.448C250.47 398.58 293.882 263.608 375.499 191.523Z" stroke="#27AE60" stroke-width="20"/>
</svg>
